<svg width="95" height="98" viewBox="0 0 95 98" fill="none" xmlns="http://www.w3.org/2000/svg">
<path d="M80.4965 6.91359C72.165 2.39066 60.7541 0 47.497 0C34.2399 0 22.8289 2.39066 14.4974 6.91359C5.0132 12.0624 0 19.7204 0 29.0599C0 38.1863 6.41801 54.6683 15.9703 70.0732C20.7969 77.8568 25.9224 84.4714 30.7929 89.2014C36.8044 95.0397 42.4245 98 47.497 98C52.5694 98 58.1895 95.0397 64.201 89.2014C69.0715 84.4714 74.1972 77.8568 79.0237 70.0732C88.5759 54.6683 94.9939 38.1861 94.9939 29.0599C94.9939 19.7204 89.9807 12.0626 80.4965 6.91359Z" fill="#0A1733"/>
<path d="M51.7412 65.8227C54.5702 62.9933 55.3888 58.7903 54.3457 54.6052C54.5462 52.645 55.958 51.8897 56.9361 51.6003C57.4974 51.5497 58.0683 51.4472 58.6374 51.2682C62.2437 50.1442 64.8374 46.5001 63.8063 44.8686C63.1176 43.7782 62.4281 43.1439 60.3821 44.155H60.3812L60.3797 44.1567C60.1463 44.2712 59.8953 44.4084 59.6261 44.5679C58.8844 44.8959 57.7611 45.1766 57.0274 44.3572C56.2835 43.5262 56.6795 42.1631 57.0723 41.2716L67.1987 30.9863L67.2025 30.9901C67.2202 30.9692 67.2378 30.9497 67.2555 30.9291L67.5226 30.6574C68.4542 29.8199 69.6994 29.6655 70.372 30.3381C70.4024 30.3681 70.4208 30.4056 70.4481 30.4383C70.4882 30.3373 70.5315 30.2347 70.5797 30.1305C71.0696 29.0558 71.9371 27.8274 73.0931 26.6705C74.1482 25.6157 75.2643 24.7981 76.2681 24.2897C76.3652 24.2405 76.4588 24.1995 76.5528 24.1558L77.0666 23.6419C77.0249 23.316 77.0771 22.9111 77.3352 22.4284C77.3352 22.4284 76.4932 21.2579 76.4316 20.4975C76.3988 20.0961 76.1558 20.0007 75.9321 19.9983C75.7323 19.9958 75.5481 20.0664 75.5481 20.0664C75.5481 20.0664 75.6185 19.8825 75.6161 19.6824C75.6128 19.4591 75.5174 19.215 75.1166 19.1829C74.3568 19.1214 73.1864 18.2788 73.1864 18.2788C72.7037 18.5379 72.2988 18.5896 71.9724 18.5473L71.4585 19.0612C71.4161 19.1558 71.3745 19.2492 71.3255 19.3463C70.8181 20.3496 69.9995 21.4661 68.9443 22.5212C67.7881 23.6769 66.559 24.5457 65.4846 25.0351C65.3804 25.0825 65.2778 25.1262 65.1768 25.1663C65.2096 25.1935 65.2465 25.2124 65.277 25.2429C65.8855 25.8511 65.8206 26.9291 65.1839 27.8189L54.6527 38.5153C53.7539 39.0217 52.103 39.7321 51.3394 38.6392C50.4791 37.4076 51.0291 35.9489 51.2861 35.4101C51.3229 35.3396 51.36 35.2698 51.3936 35.2025C51.3943 35.2008 51.3979 35.1952 51.3979 35.1952L51.3968 35.1944C52.4183 33.1359 51.782 32.4456 50.69 31.7549C49.058 30.7238 45.4152 33.3183 44.2903 36.9242C44.1984 37.2174 44.1319 37.5111 44.0749 37.8042L44.071 37.8026C44.071 37.8026 44.0685 37.8282 44.0637 37.8706C44.0397 38.0005 44.0128 38.1301 43.9948 38.2591C43.764 39.3154 42.8723 41.8166 39.6328 41.4766V41.4774C36.1163 41.0841 32.7413 42.0382 30.348 44.4306C25.5888 49.1899 26.5187 57.8377 32.4265 63.7451C38.3349 69.6518 46.9815 70.5819 51.7412 65.8227Z" fill="#F7F4F2"/>
</svg>
