<svg width="63" height="65" viewBox="0 0 63 65" fill="none" xmlns="http://www.w3.org/2000/svg">
<path d="M53.3853 4.5851C47.8598 1.58549 40.2921 0 31.5 0C22.7079 0 15.1402 1.58549 9.61468 4.5851C3.32475 7.9998 0 13.0786 0 19.2725C0 25.3252 4.25643 36.256 10.5915 46.4726C13.7925 51.6346 17.1918 56.0215 20.4219 59.1584C24.4087 63.0304 28.136 64.9936 31.5 64.9936C34.864 64.9936 38.5913 63.0304 42.5781 59.1584C45.8082 56.0215 49.2076 51.6346 52.4085 46.4726C58.7436 36.256 63 25.325 63 19.2725C63 13.0786 59.6752 7.99993 53.3853 4.5851Z" fill="#F7F4F2"/>
<path d="M34.3148 43.6537C36.191 41.7772 36.7339 38.9898 36.0421 36.2142C36.1751 34.9142 37.1114 34.4133 37.7601 34.2214C38.1323 34.1878 38.5109 34.1198 38.8884 34.0011C41.2801 33.2557 43.0002 30.8389 42.3164 29.7569C41.8597 29.0338 41.4024 28.6131 40.0455 29.2836H40.0449L40.0438 29.2848C39.8891 29.3607 39.7226 29.4517 39.5441 29.5575C39.0522 29.775 38.3072 29.9612 37.8206 29.4177C37.3272 28.8666 37.5899 27.9627 37.8504 27.3714L44.5662 20.5501L44.5688 20.5527C44.5805 20.5388 44.5922 20.5259 44.6039 20.5122L44.781 20.332C45.3989 19.7766 46.2247 19.6742 46.6708 20.1203C46.6909 20.1402 46.7031 20.1651 46.7212 20.1867C46.7478 20.1198 46.7766 20.0517 46.8085 19.9826C47.1334 19.2698 47.7088 18.4552 48.4754 17.6879C49.1751 16.9884 49.9153 16.4461 50.581 16.109C50.6454 16.0763 50.7075 16.0491 50.7699 16.0202L51.1106 15.6794C51.083 15.4632 51.1176 15.1947 51.2888 14.8746C51.2888 14.8746 50.7303 14.0983 50.6895 13.594C50.6677 13.3278 50.5066 13.2645 50.3582 13.2629C50.2257 13.2613 50.1035 13.3081 50.1035 13.3081C50.1035 13.3081 50.1503 13.1861 50.1486 13.0534C50.1465 12.9053 50.0832 12.7434 49.8173 12.7222C49.3135 12.6814 48.5372 12.1226 48.5372 12.1226C48.2172 12.2944 47.9486 12.3287 47.7322 12.3006L47.3913 12.6414C47.3632 12.7042 47.3356 12.7661 47.3031 12.8305C46.9666 13.4959 46.4237 14.2364 45.7239 14.9361C44.9571 15.7026 44.142 16.2787 43.4295 16.6033C43.3603 16.6348 43.2923 16.6637 43.2253 16.6903C43.2471 16.7084 43.2715 16.7209 43.2917 16.7411C43.6953 17.1445 43.6523 17.8594 43.23 18.4496L36.2457 25.5434C35.6496 25.8792 34.5548 26.3504 34.0483 25.6256C33.4778 24.8088 33.8425 23.8414 34.013 23.484C34.0374 23.4373 34.062 23.391 34.0843 23.3463C34.0848 23.3452 34.0871 23.3415 34.0871 23.3415L34.0864 23.341C34.7638 21.9758 34.3419 21.518 33.6176 21.0599C32.5353 20.3761 30.1194 22.0967 29.3733 24.4882C29.3125 24.6826 29.2683 24.8774 29.2305 25.0718L29.2279 25.0708C29.2279 25.0708 29.2263 25.0877 29.2231 25.1158C29.2072 25.202 29.1893 25.2879 29.1774 25.3735C29.0243 26.074 28.4329 27.7328 26.2845 27.5073V27.5079C23.9524 27.247 21.7141 27.8798 20.1268 29.4664C16.9705 32.6228 17.5873 38.358 21.5053 42.2758C25.4238 46.1931 31.1582 46.81 34.3148 43.6537Z" fill="#0A1733"/>
</svg>
